# xmcd CD database file
#
# Track frame offsets:
#	150
#	19678
#	39146
#	56782
#	80594
#	101354
#	124932
#	143770
#	162430
#	184248
#	203373
#	217283
#	235770
#	258735
#
# Disc length: 4288 seconds
#
# Revision: 3
# Processed by: cddbd v1.4PL0 Copyright (c) Steve Scherf et al.
# Submitted via: CDex 1.40Release
#
DISCID=c310be0e
DTITLE=Keb' Mo' - Slow Down
DYEAR=1998
DGENRE=Blues
TTITLE0=Muddy Water
TTITLE1=I Was Wrong
TTITLE2=Everything I Need
TTITLE3=Henry
TTITLE4=Soon As I Get Paid
TTITLE5=A Better Man
TTITLE6=I Don't Know
TTITLE7=A Letter To Tracy
TTITLE8=Slow Down
TTITLE9=Rainmaker
TTITLE10=Love In Vain
TTITLE11=God Trying to Get Your Attention
TTITLE12=Telling You Now
TTITLE13=CDExtra
EXTD=YEAR: 1998 ID3G: 0
EXTT0=
EXTT1=
EXTT2=
EXTT3=
EXTT4=
EXTT5=
EXTT6=
EXTT7=
EXTT8=
EXTT9=
EXTT10=
EXTT11=
EXTT12=
EXTT13=
PLAYORDER=
